<svg xmlns="http://www.w3.org/2000/svg" height="219.784" width="220.98"><path d="M189.449 124.039v.022a5.316 5.316 0 01-.119.875 10.369 10.369 0 01-2.584 4.157 55.894 55.894 0 01-6.267 5.492 46.505 46.505 0 01-6.77 4.541 47.057 47.057 0 01-15.29 5.4c4.7-2.654 9.077-5.532 13.4-8.509l6.491-4.355a33.96 33.96 0 005.747-5 7.556 7.556 0 001.552-2.368 2.408 2.408 0 00-.538-.022 31.754 31.754 0 00-7.05 1.854c-4.9 1.734-9.8 3.755-15.038 5.254 4.055-4.557 8.474-8.428 12.73-12.47 2.12-2.024 4.173-4.11 6.085-6.294a56.671 56.671 0 005.336-6.732 27.324 27.324 0 002.031-3.52 8.736 8.736 0 00.56-1.639 1.193 1.193 0 00.031-.209h-.027a8.762 8.762 0 00-1.748.463 32.816 32.816 0 00-3.847 1.707c-5.124 2.7-10.109 5.884-15.83 8.108 5.4-6.742 10.983-13.141 16-19.913a97.524 97.524 0 006.821-10.491 39.064 39.064 0 002.537-5.546 12.5 12.5 0 00.962-5.308c0-.02-.01-.028-.014-.047a14.3 14.3 0 00-2 1.226c-1.646 1.192-3.276 2.549-4.9 3.916l-9.636 8.5a79.889 79.889 0 01-10.445 7.694 44.2 44.2 0 01-11.884 5.336c7.083-4.966 13.281-10.554 19.857-15.964a556.73 556.73 0 009.8-8.264c1.634-1.409 3.275-2.814 5.081-4.154a14.632 14.632 0 013.205-1.876 3.285 3.285 0 01.618-.179 2.627 2.627 0 01.795-.093 2.456 2.456 0 011.078.207 3.674 3.674 0 01.6.331 1.944 1.944 0 01.341.308 4.432 4.432 0 011.081 2.051 46.368 46.368 0 0014.413-17.992 43.233 43.233 0 003.549-12.672 28.006 28.006 0 00.05-6.441 10.474 10.474 0 00-.69-2.835 2.163 2.163 0 00-.46-.739 1.6 1.6 0 00-.464.44 10.581 10.581 0 00-.8 1.214c-.533.918-1.052 1.939-1.584 2.955-1.06 2.047-2.187 4.113-3.416 6.112a76.021 76.021 0 01-8.45 11.243 108.334 108.334 0 01-21.427 17.834c-7.675 5.091-15.43 9.959-22.949 15.134-3.755 2.587-7.463 5.234-11 8.053a55.017 55.017 0 00-9.545 9.2 12.569 12.569 0 00-.864 1.29 7.969 7.969 0 00-.682 1.3 4.821 4.821 0 00-.471 2.613 24.5 24.5 0 00.933 6.344 36.66 36.66 0 002.458 6.082c.949 2.043 2.2 4.156 2.629 6.9a9.451 9.451 0 01.1 2.131 5.739 5.739 0 01-.81 2.348 14.528 14.528 0 01-2.569 3.025 29.945 29.945 0 01-5.809 4.261 45.466 45.466 0 01-13.194 4.712c3.724-2.886 7.562-5.353 11.235-7.908 1.83-1.259 3.747-2.4 5.35-3.758a9.846 9.846 0 001.944-2.132 2.361 2.361 0 00.33-.867 6.109 6.109 0 00-.071-1.293 22.153 22.153 0 00-2.311-5.876 48.441 48.441 0 01-1.987-4.565l-.054-.123a16.217 16.217 0 00-2.569-3.967 16.52 16.52 0 00-3.63-3.135 16.313 16.313 0 00-9.2-2.326 19.256 19.256 0 00-4.86.776 38.73 38.73 0 00-4.517 1.857 19.983 19.983 0 00-7.933 6.148 12.525 12.525 0 014.713-8.286 23.893 23.893 0 017.319-13.269c-8.11-6.061-19.535-8.831-28.52-6.75a17.883 17.883 0 00-11.882 8.475 19.32 19.32 0 011.559.888 17.072 17.072 0 015.809 5.85c-2.565-1.053-4.914-2.034-7.283-2.9-2.369-.848-4.7-1.6-7.083-2.218a24.883 24.883 0 00-14.551.987 20.32 20.32 0 00-11.2 8.8 28.77 28.77 0 00-2.419 6.789c-.645 2.376-1.146 4.8-1.946 7.546a13.084 13.084 0 01-1.655-8.288 22.087 22.087 0 00-16.36 11.459 15.083 15.083 0 00-1.429 10.905l.318 1.353c.142.443.358.864.5 1.307s.328.878.457 1.337a12.123 12.123 0 00.606 1.3c.45.846.669 1.858 1.175 2.738a15.683 15.683 0 011.136 3.083 12.054 12.054 0 01-6.289-5.6c-5.1 3.1-8.183 7.625-8.306 12.405-.151 5.88 4.022 11.724 11.791 16.61a11.85 11.85 0 016.119-5.62 53.338 53.338 0 01-2.27 5.967 19.434 19.434 0 00-1.525 5.391 9.738 9.738 0 00.768 5.285 11.25 11.25 0 003.51 4.244 17.394 17.394 0 0010.9 3.324 21.674 21.674 0 0010.31-2.987 19.935 19.935 0 01.081-2.366 20.694 20.694 0 01.574-3.094 35.567 35.567 0 01-6.509-5.741 21.948 21.948 0 01-4.853-8.994 16.473 16.473 0 01.747-10.42 17.413 17.413 0 015.309-6.842 15.45 15.45 0 01-2.336-6.742 13.806 13.806 0 012.235-8.719 14.922 14.922 0 016.9-5.713 11.737 11.737 0 017.064-.6 14.821 14.821 0 012.187-5.567 12.221 12.221 0 016.549-5.16 18.865 18.865 0 017.9-.572 22.987 22.987 0 017.27 2.122 45.571 45.571 0 00-7.3.163 21.448 21.448 0 00-6.586 1.665 12.1 12.1 0 00-4.818 3.8c-1.3 1.645-1.707 3.9-2.079 6.081l-.027.146a1.77 1.77 0 01-2.067 1.409 1.867 1.867 0 01-.461-.155 7.746 7.746 0 00-6.325-.048 11.413 11.413 0 00-5.237 4.352 10.255 10.255 0 00-1.679 6.5 12.842 12.842 0 002.62 6.385l.033.045a1.763 1.763 0 01-.385 2.462l-.076.052a14.244 14.244 0 00-5.433 6.315 12.917 12.917 0 00-.573 8.177 18.446 18.446 0 004.11 7.558 31.141 31.141 0 005.081 4.6 18.485 18.485 0 012.124-3.566 16.367 16.367 0 017.342-5.365 33.7 33.7 0 01-2.016-10.927 18.491 18.491 0 011.279-6.71 13.874 13.874 0 01.767-1.6l.983-1.5a14.1 14.1 0 012.555-2.473 16.242 16.242 0 013-1.8 21.574 21.574 0 013.232-1.07 26.151 26.151 0 016.562-.746 44.5 44.5 0 0110.469 1.307 18.405 18.405 0 01.8-4.334 16.894 16.894 0 013.313-5.956 20.52 20.52 0 0111.622-6.285 20.315 20.315 0 0113.058 1.29 21.259 21.259 0 019.2 8.777 38.391 38.391 0 00-10.532-5.52 37.6 37.6 0 00-5.465-1.257 16.471 16.471 0 00-5.578.18c-3.685.759-7.293 2.377-9.632 5.131a13.369 13.369 0 00-2.613 4.7 14.378 14.378 0 00-.664 5.321v.029a1.8 1.8 0 01-2.291 1.869 42.767 42.767 0 00-11.684-1.724 22.614 22.614 0 00-5.719.643 18.067 18.067 0 00-2.645.867 12.771 12.771 0 00-2.3 1.387c-2.946 2.041-4.121 5.721-4.183 9.488a31.351 31.351 0 002.382 11.332v.007l.015.033a1.764 1.764 0 01-.942 2.309 2.073 2.073 0 01-.3.095 12.7 12.7 0 00-7.239 4.665 16.065 16.065 0 00-3.221 8.262 16.8 16.8 0 001.492 8.82 18.907 18.907 0 005.708 6.966c4.941 3.682 11.412 5.484 17.313 3.854 2.988-.745 5.452-2.592 7.931-4.3 2.42-1.85 4.634-4.142 5.467-7.478a9.108 9.108 0 01-.354 5.257 15.153 15.153 0 01-2.819 4.625c-.107.132-.229.247-.343.374 7.011 2.938 14.481 3.245 20.854.749 6.25-2.447 10.923-7.327 13.609-14.105a19.782 19.782 0 01-3.928-8.048 74.67 74.67 0 0012.855 10.5 16.083 16.083 0 007.55 1.816l1.96-.083c.648-.107 1.294-.268 1.941-.394a21.146 21.146 0 003.8-1.241c1.243-.513 2.422-1.238 3.625-1.861l1.656-1.165.831-.579.746-.676a20.943 20.943 0 004.974-6.23 25.065 25.065 0 002.692-13.877 21.434 21.434 0 01-2.853.058 24.3 24.3 0 01-8.907-2.3 43.586 43.586 0 008.735-.6 26.555 26.555 0 004.518-1.293c-.576-.311-1.162-.614-1.693-.969a86.048 86.048 0 01-8.55-6.761 26.462 26.462 0 00-4.011-2.942 4.636 4.636 0 00-.931-.411 3.541 3.541 0 00-.74-.131 12.711 12.711 0 00-2.25.4c-.981.295-1.983.6-2.979.911a15.177 15.177 0 01-5.071 6.737 18.471 18.471 0 01-8.7 3.6 22.292 22.292 0 01-9.229-.832 32.274 32.274 0 01-5.571-2.224 25.355 25.355 0 01-.343 2.637 19.189 19.189 0 01-1.937 5.527 16.273 16.273 0 01-8.862 7.649 16.988 16.988 0 01-11.65.261 16.544 16.544 0 01-8.79-6.894c3.554 1.238 6.681 2.508 9.871 3.27 3.136.73 6.365 1.143 9.343.012a12.43 12.43 0 006.972-5.967 17.656 17.656 0 001.888-9.323v-.043a1.785 1.785 0 012.763-1.6 28.275 28.275 0 007.3 3.3 18.745 18.745 0 007.789.723 14.921 14.921 0 007.015-2.906 11.981 11.981 0 002.438-2.49 110.854 110.854 0 01-12.715 3.137 54 54 0 019.334-5.529 43.182 43.182 0 0110.329-3.565 19.021 19.021 0 013.028-.385 7.535 7.535 0 013.376 1.019 29.363 29.363 0 014.608 3.347 84.113 84.113 0 008.192 6.5 17.839 17.839 0 004.344 2.119l1.106.278c.1.018.191.024.287.034-.181-.5-.391-1.033-.605-1.6a10.093 10.093 0 01-.78-3.162 3.349 3.349 0 01.987-2.553 3.616 3.616 0 012.411-.874c.311.01.638.02.932.049l.771.14c.529.091.944.229 1.421.343a59.545 59.545 0 0010.126 2.4 28.423 28.423 0 008.615-.3c-.433-.088-.868-.174-1.3-.261l-5.266-1.038a33.244 33.244 0 01-5.479-1.51 4.761 4.761 0 01-1.78-1.186 2.479 2.479 0 01-.531-1.047 2.286 2.286 0 01.158-1.445 3.219 3.219 0 01.961-1.138 23.35 23.35 0 012.492-1.563l4.686-2.593c3.087-1.725 6.124-3.5 9.044-5.437 5.821-3.859 11.345-8.272 15.466-13.716a25.47 25.47 0 005.614-14.751c-4.877 5.724-11.645 11.079-20.251 16.049z" fill="#85c3e9"/><path d="M84.344 182.173s-10.017 11.226-20.624 6.595c-8.4-3.668-7.832-14.94-7.231-19.487a12.728 12.728 0 00-6.529 4.438 16.065 16.065 0 00-3.221 8.262 16.8 16.8 0 001.492 8.82 18.907 18.907 0 005.708 6.966c4.941 3.682 11.412 5.484 17.313 3.854 2.988-.745 5.452-2.592 7.931-4.3 2.42-1.85 4.634-4.142 5.467-7.478a9.108 9.108 0 01-.354 5.257 15.153 15.153 0 01-2.819 4.625c-.107.132-.229.247-.343.374 7.011 2.938 14.481 3.245 20.854.749 6.25-2.447 10.923-7.327 13.609-14.105a24.78 24.78 0 01-2.049-3.144l-.025-.005c-20.028 15.826-29.179-1.421-29.179-1.421zM37.284 172.799a23.508 23.508 0 01-3.776-5.936c-5.06-.157-6.322-7.606-6.322-7.606-13.258-3.795-4.356-16.478-4.356-16.478-6.508-6.669-3.11-19.49.31-28.093a21.721 21.721 0 00-7.772 8.279 15.083 15.083 0 00-1.429 10.905l.318 1.353c.142.443.358.864.5 1.307s.328.878.457 1.337a12.123 12.123 0 00.606 1.3c.45.846.669 1.858 1.175 2.738a15.683 15.683 0 011.136 3.083 12.054 12.054 0 01-6.289-5.6c-5.1 3.1-8.183 7.625-8.306 12.405-.151 5.88 4.022 11.724 11.791 16.61a11.85 11.85 0 016.119-5.62 53.338 53.338 0 01-2.27 5.967 19.424 19.424 0 00-1.525 5.391 9.733 9.733 0 00.768 5.284 11.245 11.245 0 003.51 4.245 17.387 17.387 0 0010.9 3.323 21.662 21.662 0 0010.31-2.986 19.935 19.935 0 01.081-2.366 20.671 20.671 0 01.574-3.094 35.567 35.567 0 01-6.51-5.748zM132.073 191.015l1.96-.083c.648-.107 1.294-.268 1.941-.394a21.146 21.146 0 003.8-1.241c1.243-.513 2.422-1.238 3.625-1.861l1.656-1.165.831-.579.746-.676a20.943 20.943 0 004.974-6.23 25.065 25.065 0 002.692-13.877 21.434 21.434 0 01-2.853.058c-.132-.007-.26-.033-.392-.043-7.8 18.552-25.528 19.669-33.508 19.147a56.337 56.337 0 006.973 5.128 16.083 16.083 0 007.555 1.816zM154.103 159.8c-.375-.24-.722-.5-1.084-.755-.25.969-.524 1.9-.818 2.8a29 29 0 003.6-1.072c-.581-.315-1.167-.618-1.698-.973zM185.629 153.698c-.433-.088-.868-.174-1.3-.261l-5.266-1.038a33.341 33.341 0 01-5.479-1.51 4.754 4.754 0 01-1.78-1.187 2.468 2.468 0 01-.531-1.046 2.286 2.286 0 01.158-1.445 3.219 3.219 0 01.961-1.138 23.35 23.35 0 012.492-1.563l4.686-2.593a147.238 147.238 0 008.071-4.827 73.419 73.419 0 00-7.269-2.424 46.074 46.074 0 01-6.662 4.46 47.057 47.057 0 01-15.29 5.4c4.7-2.654 9.077-5.532 13.4-8.509l3.63-2.436c-11.03-1.788-19.7 1.554-20.825 15.66a61.215 61.215 0 01-.8 6.049 34.882 34.882 0 002.186 1.533 17.8 17.8 0 004.344 2.118l1.106.279c.1.018.191.024.287.034-.181-.5-.391-1.033-.605-1.6a10.093 10.093 0 01-.78-3.162 3.349 3.349 0 01.987-2.553 3.611 3.611 0 012.411-.874c.311.01.638.019.932.049l.771.14c.529.091.944.229 1.421.342a59.458 59.458 0 0010.126 2.4 28.423 28.423 0 008.618-.298z" fill="#70b1de"/><path d="M47.176 171.54a16.359 16.359 0 017.342-5.365 36.974 36.974 0 01-1.555-6.027c-10.043 5.058-13.451-4.217-14.478-8.691a12.635 12.635 0 00-2.625 11.486 18.452 18.452 0 004.11 7.558 31.185 31.185 0 005.081 4.6 18.485 18.485 0 012.125-3.561z" fill="#70b1de"/><path d="M215.519 28.598a2.152 2.152 0 00-.46-.739 1.6 1.6 0 00-.464.44 10.581 10.581 0 00-.8 1.214c-.533.918-1.052 1.939-1.584 2.955-1.06 2.047-2.187 4.113-3.416 6.111a75.979 75.979 0 01-8.45 11.244 108.334 108.334 0 01-21.427 17.834c-7.675 5.091-15.43 9.959-22.949 15.134-3.755 2.587-7.463 5.234-11 8.053a55.017 55.017 0 00-9.545 9.2 12.569 12.569 0 00-.864 1.29 7.969 7.969 0 00-.682 1.3 4.821 4.821 0 00-.471 2.613 24.5 24.5 0 00.933 6.344 36.66 36.66 0 002.458 6.082c.949 2.043 2.2 4.156 2.629 6.9a9.448 9.448 0 01.1 2.131 5.739 5.739 0 01-.81 2.348 14.528 14.528 0 01-2.569 3.025 29.945 29.945 0 01-5.809 4.261 49.01 49.01 0 01-7.557 3.23c-5.437 5.185-10.229 12.846.7 11.867a70.384 70.384 0 013-1.53 43.182 43.182 0 0110.329-3.565 19.021 19.021 0 013.028-.385 7.535 7.535 0 013.376 1.019 29.363 29.363 0 014.608 3.347 84.113 84.113 0 008.192 6.5 17.8 17.8 0 004.344 2.118l1.106.279c.1.018.191.024.287.034-.181-.5-.391-1.033-.605-1.6a10.093 10.093 0 01-.78-3.162 3.349 3.349 0 01.987-2.553 3.611 3.611 0 012.411-.874c.311.01.638.019.932.049l.771.14c.529.091.944.229 1.421.342a59.458 59.458 0 0010.126 2.4 28.423 28.423 0 008.615-.3c-.433-.088-.868-.174-1.3-.261l-5.266-1.038a33.341 33.341 0 01-5.479-1.51 4.754 4.754 0 01-1.78-1.187 2.468 2.468 0 01-.531-1.046 2.286 2.286 0 01.158-1.445 3.219 3.219 0 01.961-1.138 23.35 23.35 0 012.492-1.563l4.686-2.593c3.087-1.725 6.124-3.5 9.044-5.437 5.821-3.859 11.345-8.272 15.466-13.716a25.47 25.47 0 005.614-14.751c-4.875 5.7-11.644 11.056-20.245 16.026v.022a5.316 5.316 0 01-.119.875 10.369 10.369 0 01-2.584 4.157 55.894 55.894 0 01-6.267 5.492 46.505 46.505 0 01-6.77 4.541 47.057 47.057 0 01-15.29 5.4c4.7-2.654 9.077-5.532 13.4-8.509l6.491-4.355a33.96 33.96 0 005.747-5 7.556 7.556 0 001.552-2.368 2.408 2.408 0 00-.538-.022 31.754 31.754 0 00-7.05 1.854c-4.9 1.734-9.8 3.755-15.038 5.254 4.055-4.557 8.474-8.428 12.73-12.47 2.12-2.024 4.173-4.11 6.085-6.294a56.671 56.671 0 005.336-6.732 27.324 27.324 0 002.031-3.52 8.736 8.736 0 00.56-1.639 1.193 1.193 0 00.031-.209h-.027a8.7 8.7 0 00-1.748.463 32.816 32.816 0 00-3.847 1.707c-5.124 2.7-10.109 5.883-15.83 8.108 5.4-6.742 10.983-13.141 16-19.913a97.524 97.524 0 006.821-10.491 39.064 39.064 0 002.537-5.546 12.5 12.5 0 00.962-5.308c0-.02-.01-.028-.014-.047a14.3 14.3 0 00-2 1.226c-1.646 1.192-3.276 2.549-4.9 3.916l-9.636 8.5a79.889 79.889 0 01-10.445 7.694 44.2 44.2 0 01-11.884 5.336c7.083-4.966 13.281-10.554 19.857-15.964a556.73 556.73 0 009.8-8.264c1.634-1.409 3.275-2.814 5.081-4.154a14.593 14.593 0 013.205-1.876 3.285 3.285 0 01.618-.179 2.627 2.627 0 01.795-.093 2.442 2.442 0 011.078.207 3.674 3.674 0 01.6.331 1.944 1.944 0 01.341.308 4.432 4.432 0 011.081 2.051 46.368 46.368 0 0014.413-17.992 43.233 43.233 0 003.549-12.672 28.006 28.006 0 00.05-6.441 10.462 10.462 0 00-.695-2.821zM143.318 48.558a22.329 22.329 0 01-.865 3.271 41.924 41.924 0 01-2.76 6.132 71.476 71.476 0 01-7.365 10.871 94.477 94.477 0 01-6.457 7.29 46.469 46.469 0 015.075-2.822 14.839 14.839 0 012.9-1.033 6.028 6.028 0 012.026-.136 3.61 3.61 0 01.673.135 5.668 5.668 0 01.775.343 3.889 3.889 0 011.025 1.007c17.858-16.79 22.943-29.541 23.98-37.409a22.559 22.559 0 00-.759-10.109 49.367 49.367 0 01-18.248 22.46z" fill="#fff"/><path d="M81.583 82.131c10.219-2.356 23.248.914 32.193 7.968a21.707 21.707 0 013.189-1.744 22.292 22.292 0 0111.68-1.595 50.1 50.1 0 005.252-7.771 12.863 12.863 0 00.875-2.1 2.533 2.533 0 00.132-.724 5.119 5.119 0 00-.232.031 14.04 14.04 0 00-2.2.69 101.376 101.376 0 00-9.382 4.689c-3.152 1.684-6.315 3.4-9.656 4.92 5.286-6.863 10.895-13.211 15.983-19.926a93.661 93.661 0 006.824-10.486 38.063 38.063 0 002.528-5.546 12.5 12.5 0 00.956-5.295l-.006-.018a13.829 13.829 0 00-1.973 1.207c-1.644 1.192-3.274 2.549-4.894 3.916-3.248 2.741-6.451 5.6-9.669 8.463-1.636 1.4-3.287 2.8-5.027 4.082s-3.564 2.473-5.409 3.62a46.107 46.107 0 01-11.873 5.351c3.573-2.46 6.872-5.09 10.129-7.8s6.431-5.489 9.749-8.144 6.524-5.47 9.767-8.3c1.635-1.408 3.277-2.812 5.083-4.153a15.1 15.1 0 013.207-1.886 3.513 3.513 0 01.622-.182 2.664 2.664 0 01.8-.094 2.478 2.478 0 011.09.21 3.7 3.7 0 01.6.335 2.022 2.022 0 01.344.31 4.446 4.446 0 011.085 2.055c13.314-10.048 18.143-24.483 18.156-34.23.007-4.176-.923-6.2-1.348-6.477-.506.208-1.681 2.466-2.624 4.28-3.163 6.086-9.054 17.414-25.569 30.019-3.9 2.975-9.823 6.823-16.1 10.9-14.875 9.659-37.354 24.257-37.354 31.592a26.457 26.457 0 00.144 2.7 26.142 26.142 0 012.928-.867z" fill="#fff"/><path d="M168.466 185.344a38.087 38.087 0 01-14.766-3.171 22.792 22.792 0 01-4.738 5.506l-.865.776-.942.665-1.894 1.324c-1.353.714-2.658 1.507-4.08 2.1a24.736 24.736 0 01-4.422 1.443c-.769.154-1.533.334-2.307.457l-2.371.107a22.163 22.163 0 01-13.8-5.051 28.1 28.1 0 01-8.717 11.1c5.093 5.215 24.333 22.588 45.862 12.394 20.353-9.644 21.555-23.64 21.224-28.846a27.686 27.686 0 01-8.184 1.196zM176.6 157.512a62.465 62.465 0 01-10.645-2.5 10.585 10.585 0 00-2.031-.4 8.824 8.824 0 00.528 1.8c.3.806.664 1.6.968 2.683a5.194 5.194 0 01.174.991 2.749 2.749 0 01-.4 1.735 2.445 2.445 0 01-.975.839 2.764 2.764 0 01-.889.239l-.356.021-.2-.015-.393-.031c-.519-.052-1.052-.07-1.558-.164l-.235-.059a10.319 10.319 0 01-2.813 1.518 30.64 30.64 0 01-.173 7.516 26.93 26.93 0 01-2.2 7.374c12.683 5.3 23.153 2.318 27.668-2.935 4.086-4.752 3.8-11.458-.771-18.428a33.041 33.041 0 01-5.699-.184z" fill="#70b1de"/><path d="M138.757 78.053a16.74 16.74 0 01-1.149 2.836 34.6 34.6 0 01-4.835 6.751 29.549 29.549 0 016.853 3.057q1.556-1.336 3.143-2.617c3.319-2.647 6.747-5.1 10.205-7.5a1.776 1.776 0 01.268-.525c9.02-11.4 7.8-21.426 6.306-26.348-4.166 7.065-10.727 15.2-20.791 24.346zM130.627 101.257a11.244 11.244 0 01.9-1.742 15.652 15.652 0 011.048-1.565 41.546 41.546 0 014.292-4.744c-6.252-3.482-12.75-4.084-18.507-1.6a19.321 19.321 0 00-10.447 11.5 22.546 22.546 0 012.454-.72 28.856 28.856 0 015.681-.819 22.78 22.78 0 015.786.581 19.03 19.03 0 015.415 2.28 19.8 19.8 0 012.681 2.073c-.021-.389-.05-.779-.057-1.167a10.015 10.015 0 01.113-2.084 10.194 10.194 0 01.641-1.993zM193.654 102.331a15.714 15.714 0 01-.583 1.727 24.763 24.763 0 01-2.367 4.232 71.551 71.551 0 01-12.539 13.334c-.361.31-.729.612-1.095.916a23.125 23.125 0 017.9-2.154 5.411 5.411 0 012.694.6c15-8.662 24.064-18.4 26.9-28.968A25.236 25.236 0 00214.422 78c-4.158 7.065-10.714 15.194-20.768 24.331zM215.836 51.993a50.1 50.1 0 01-17.675 20.9 22.529 22.529 0 01-.854 3.233 40.821 40.821 0 01-2.752 6.133 69.619 69.619 0 01-7.368 10.865 99.85 99.85 0 01-6.75 7.4q.939-.579 1.9-1.134a36.535 36.535 0 014.206-2.129 12.6 12.6 0 012.523-.8 5.127 5.127 0 011.752-.061 4.315 4.315 0 01.553.109 5.5 5.5 0 01.655.273 3.45 3.45 0 011.044.846 3.142 3.142 0 01.183.263c17.836-16.776 22.916-29.519 23.951-37.382a22.6 22.6 0 00-.74-10.062c-.215.515-.402 1.038-.628 1.546z" fill="#fff"/><g fill="none" stroke="#3e4147" stroke-linecap="round" stroke-linejoin="round" stroke-width="3.536"><path d="M119.341 134.157s-9.5-11.933-23.644-7.955-12.6 16.73-12.6 16.73-16.572-5.239-24.749 2.053-1.546 22.345-1.546 22.345c-13.479 3.067-17.457 24.059-1.768 33.34s30.052-2.873 29.61-10.828M133.223 113.883a17.792 17.792 0 00-15.429-10.549c-6.842-.313-15.979 2.87-18.928 10.549"/><path d="M74.483 167.331s10.386 9.227 20.771 4.613 9.061-16.812 9.061-16.812 11.269 7.752 21.213 2.891c4.905-2.4 6.962-5.873 7.785-8.778M142.543 162.663c6.629 1.548 12.816 1.162 17.264-1.629"/><path d="M111.668 178.694s10.546 20.65 29.328 12.032 14.837-27.95 14.837-27.95M77.864 200.541c15.181 7.863 33.4 3.527 39.76-14.082M153.019 179.948c22.91 10.726 43.765-3.752 30.622-23.448M105.236 106.261c2.639-15.083 18.791-23.793 34.553-13.38M77.864 100.79s-12.882-12.374-30.339-5.524-14.143 24.528-14.143 24.528M113.67 92.277c-13.333-11.374-38.417-13.924-45.652 2.709M34.056 109.57c-16.142 0-31.609 19.726-15.921 35.415M21.449 162.776c-16.573 17.564 5.872 33.495 23.485 22.215M12.737 136.843c-13.385 6.727-17.056 22.466 3.563 34.2M76.249 115.591s-20.753-6.021-22.539 11.534c-8.833-4.459-21.876 8.137-12.815 19.848-10.6 6.969-10.048 21.221 4.92 30.83"/><path d="M106.887 200.324s22.709 26.863 49.291 14.267 21.937-32.861 21.937-32.861M117.149 141.057s20.371-8.8 20.64-14.631-6.165-10.416-6.165-21.823 40.055-33.14 54.146-43.9c25.751-19.654 24.929-35.685 29.753-34.582s5.3 29.821-18.973 45.742M117.149 155.441s17.69-7.688 22.783-7.688 13.939 13.4 23.053 13.391c2.963 0-2.948-6.943 0-8.183s13.4 6.2 27.073 1.4c6.024-2.115-19.43-3.674-16.888-6.606s42.084-18.1 38.063-43.894"/><path d="M155.749 96.171c17.423-7.936 36.991-31.051 39.939-28.519s-.615 18.1-27.381 43.15c0 0 19.339-14.383 22.824-12.151s-5.093 16.367-28.146 32.735c0 0 21.98-12.4 24.393-8.184s-17.423 17.607-28.949 21.327M216.236 45.973s15.577 19.783-24.6 55.821M214.641 73.884s15.085 25.511-27.267 49.318M77.225 85.503a27.545 27.545 0 01-.48-5.2c0-11.407 40.055-33.14 54.146-43.894 25.751-19.655 24.93-35.685 29.753-34.582s5.3 29.82-18.973 45.741"/><path d="M100.868 71.87c17.424-7.936 36.991-31.051 39.939-28.519s-.615 18.1-27.381 43.15c0 0 19.339-14.384 22.824-12.152 2.047 1.311-.068 6.729-6.833 14.293M161.36 21.671s15.577 19.783-24.6 55.822M159.765 49.582s8.485 14.35-5.139 31.569"/></g></svg>
